<?xml version="1.0" encoding="utf-8"?>
<!-- Generator: Adobe Illustrator 21.0.2, SVG Export Plug-In . SVG Version: 6.00 Build 0)  -->
<svg version="1.1" id="_x30_" xmlns="http://www.w3.org/2000/svg" xmlns:xlink="http://www.w3.org/1999/xlink" x="0px" y="0px"
	 viewBox="0 0 1173.8 1131.8" style="enable-background:new 0 0 1173.8 1131.8;" xml:space="preserve">
<style type="text/css">
	.st0{font-family:'ArialMT';}
	.st1{font-size:33.1099px;}
	.st2{fill:#9100AA;}
</style>
<g id="MTEXT">
	<text transform="matrix(1 0 0 1 366.4184 375.976)" class="st0 st1">freepatternsarea.com</text>
</g>
<g id="SPLINE_5_">
	<g id="XMLID_7_">
		<g>
			<path class="st2" d="M1080.4,615.6c-19.4,0-38.8,0-58.2,0c0,29.2,0,58.4,0,87.7c0,4.9-1.5,9.5-4.3,13.5c-0.2,0.3-0.4,0.6-0.6,0.9
				c-3.7,4.9-7.9,9.3-13.2,12c-3,1.5-6.3,2.5-9.6,3.2c-6.5,1.3-13.5,1.4-20,0.7c-5.4-0.6-10.5-1.7-15.6-3.1
				c-6.9-2-13.7-4.5-20.3-7.6c-7.6-3.6-14.9-7.8-21.5-12.8c-6.7,5-13.9,9.3-21.5,12.8c-6.6,3.1-13.5,5.7-20.3,7.6
				c-5.1,1.4-10.3,2.5-15.6,3.1c-6.6,0.7-13.5,0.6-20-0.7c-3.4-0.7-6.7-1.7-9.7-3.2c-5.3-2.7-9.5-7-13.2-12
				c-0.2-0.3-0.4-0.6-0.6-0.9c-2.8-4-4.3-8.7-4.3-13.5c0-29.2,0-58.4,0-87.7c-19.4,0-38.8,0-58.2,0c19.4-12.4,38.8-24.8,58.2-37.1
				c0-18,0-36,0-54.1c15.1,0,30.1,0,45.2,0c0,8.4,0,16.8,0,25.2c20-12.8,40-25.6,60-38.3C971.5,546,1025.9,580.8,1080.4,615.6z
				 M1010.4,603.7c9.8,0,19.6,0,29.4,0c-40.9-26.1-81.9-52.3-122.8-78.4c-24,15.3-47.9,30.6-71.9,45.9c0-11.7,0-23.3,0-35
				c-7.2,0-14.3,0-21.5,0c0,16.2,0,32.5,0,48.7c-9.8,6.3-19.6,12.5-29.4,18.8c9.8,0,19.6,0,29.4,0c0,31.5,0,63.1,0,94.6
				c0,12.3,8.1,21.6,20.3,23.2c0.5,0.1,1,0.1,1.5,0.2c2.9,0.3,5.8,0.4,8.8,0.3c5.8-0.2,11.6-1.3,17.2-2.9c4.5-1.2,8.9-2.8,13.2-4.5
				c4.4-1.8,8.8-3.8,12.9-6.2c3.4-2,6.8-4.1,10.1-6.3c-9-7.5-18.1-15-26.9-22.9c-10-8.9-19.6-18.2-26.3-29.5
				c-5.4-9-8.9-19.3-7.7-30.1c1.1-9.3,5.6-18.9,12.4-25.7c6.9-6.9,16.2-10.9,25.4-11.5c5.5-0.3,11.1,0.6,16.4,2.7
				c4.7,1.8,9.2,4.6,12.8,8c1.2,1.1,2.3,2.4,3.3,3.8c1-1.5,2.1-2.7,3.3-3.8c3.6-3.4,8.1-6.1,12.8-8c5.3-2.1,10.8-3,16.4-2.7
				c9.2,0.6,18.5,4.6,25.4,11.5c6.9,6.8,11.4,16.5,12.4,25.7c1.2,10.8-2.3,21.1-7.7,30.1c-6.7,11.3-16.3,20.6-26.3,29.5
				c-8.8,7.9-17.9,15.4-26.9,22.9c3.3,2.2,6.6,4.4,10.1,6.3c4.2,2.4,8.5,4.4,12.9,6.2c4.3,1.8,8.7,3.3,13.2,4.5
				c5.6,1.6,11.4,2.7,17.3,2.9c2.9,0.1,5.8,0,8.7-0.3c0.5-0.1,1-0.1,1.6-0.2c12.2-1.6,20.3-10.9,20.3-23.2
				C1010.4,666.8,1010.4,635.3,1010.4,603.7z M973.9,634.5c1.7-5.1,2.3-10.7,1.3-16c-1-5.6-3.7-10.9-7.6-15.1
				c-2.5-2.7-5.4-4.9-8.6-6.5c-2.8-1.4-5.8-2.3-8.9-2.6c-3.8-0.4-7.8-0.1-11.4,1.2c-2.8,1-5.5,2.5-8,4.2c-2.8,1.9-5.4,4-8,6.3
				c-0.9,0.8-1.7,1.5-2.7,2c-0.9,0.4-2,0.6-3,0.7c-1.1-0.2-2.1-0.3-3.1-0.7c-1-0.5-1.8-1.2-2.7-2c-2.6-2.3-5.2-4.4-8-6.3
				c-2.5-1.7-5.1-3.2-7.9-4.2c-3.6-1.2-7.6-1.6-11.4-1.2c-3.1,0.4-6.1,1.3-8.9,2.6c-3.2,1.6-6.2,3.8-8.6,6.5
				c-3.9,4.2-6.6,9.5-7.6,15.1c-1,5.3-0.4,10.9,1.3,16c1.6,5,4.3,9.6,7.3,13.8c3,4.2,6.5,8.1,10.1,11.8c3.8,3.9,7.9,7.6,12,11.2
				c5.7,5,11.6,9.9,17.3,14.9c3.4,2.9,6.7,5.8,10.1,8.7c3.4-2.8,6.8-5.8,10.1-8.7c5.8-5,11.6-9.8,17.3-14.9c4.1-3.6,8.2-7.3,12-11.2
				c3.6-3.7,7-7.6,10.1-11.8C969.6,644.1,972.2,639.5,973.9,634.5z"/>
			<path class="st2" d="M861,480.3c0.4,1.8,0.2,3.9-0.6,5.6c-0.9,1.9-2.6,3.3-4.4,4.2c-2.3,1.2-4.9,1.7-7.4,2.1
				c-3.1,0.5-6.2,0.9-9.2,1.3c-0.9-3-1.9-5.9-2.8-8.9c-0.7-2.5-1.3-5.1-1.3-7.6c0.1-2.1,0.6-4.1,1.9-5.8c1.2-1.4,2.9-2.5,4.8-3
				c1.9-0.4,3.8-0.1,5.4,0.8c1,0.5,1.8,1.3,2.4,2.2c0.6,0.8,1,1.7,1.3,2.7c0.1,0.3,0.1,0.6,0.1,1c0.3-0.1,0.6-0.2,0.9-0.3
				c1-0.2,2-0.2,3,0c1.1,0.2,2.1,0.6,3,1.3C859.5,476.8,860.6,478.4,861,480.3z"/>
			<path class="st2" d="M844.6,443.3c0.2,2.1-0.4,4.1-1.5,5.9c-1.3,2.2-3.2,4-5.2,5.8c-2.3,2.1-4.7,4-7.1,6c-2.4-2-4.8-4-7.1-6
				c-2-1.7-3.8-3.6-5.1-5.8c-1.1-1.8-1.7-3.8-1.5-5.9c0.2-1.8,1.1-3.7,2.4-5c1.4-1.3,3.2-2.1,5-2.2c1.1-0.1,2.2,0.1,3.2,0.5
				c0.9,0.4,1.8,0.9,2.5,1.6c0.2,0.2,0.5,0.5,0.7,0.8c0.2-0.3,0.4-0.5,0.6-0.8c0.7-0.7,1.6-1.2,2.5-1.6c1-0.4,2.1-0.6,3.2-0.5
				c1.8,0.1,3.6,0.9,5,2.2C843.5,439.6,844.4,441.5,844.6,443.3z"/>
			<path class="st2" d="M829.9,496.6c0.1,2.6-0.5,5.1-1.3,7.6c-0.9,3-1.9,5.9-2.8,8.9c-3.1-0.4-6.2-0.8-9.2-1.3
				c-2.6-0.4-5.1-1-7.4-2.1c-1.8-0.9-3.5-2.3-4.4-4.2c-0.8-1.6-1.1-3.7-0.6-5.6c0.4-1.9,1.5-3.5,3-4.5c0.9-0.6,1.9-1.1,3-1.3
				c1-0.2,2-0.2,2.9,0c0.3,0.1,0.6,0.2,1,0.3c0-0.3,0.1-0.7,0.1-1c0.2-0.9,0.7-1.9,1.3-2.7c0.7-0.9,1.5-1.6,2.4-2.2
				c1.6-0.9,3.5-1.2,5.4-0.8c1.9,0.4,3.6,1.5,4.8,3C829.3,492.4,829.8,494.5,829.9,496.6z"/>
		</g>
		<g>
		</g>
	</g>
</g>
<g id="SPLINE_13_">
	<g id="XMLID_2_">
		<g>
			<path class="st2" d="M920.1,289.4c-1,1.1-2,2.1-3.1,2.9c-1.5,1.1-3.3,2-5.1,2.6c-3.9,1.3-8.3,1.5-12.4,1.7
				c-6.4,0.3-12.3,0.6-18.3,1c-5.9,0.4-11.9,0.9-16.8,1.7c-2.7,0.4-5.1,0.9-8.2,2.4c-2.3,1.1-4.9,2.6-6.5,4.7
				c-1.1,1.4-1.8,3.2-1.8,4.8c0.1,2.5,1.9,4.7,4,6.5c5.9,5.2,13.5,6.5,21.1,7.7c20.6,3.4,41.1,6.5,61.7,9.5
				c15.6,2.3,31.2,4.5,46.7,7c11,1.8,22,3.7,33,5.7c4.5,0.8,8.9,1.6,13.1,3.1c5.5,2,10.6,5.1,15.8,8.1c4.4,2.6,8.8,5,12.6,8.4
				c2.9,2.6,5.4,5.7,7,9.2c1.5,3.1,2.3,6.5,3,9.9c-36.7,0-73.4,0-110.1,0c0-0.8-0.1-1.6-0.2-2.5c-0.3-1.8-0.9-3.6-1.6-5.3
				c-1-2.2-2.3-4.2-4-5.9c-1.7-1.8-3.6-3.3-5.7-4.5c-3-1.8-6.2-3-9.5-4.2c-5.1-1.9-10.2-3.6-15.3-5.1c-7.1-2-14.4-3.4-21.7-4.9
				c-12.2-2.6-24.3-5.5-36.4-8.5c-8.8-2.1-17.5-4.3-26.5-6.5c-9.1-2.3-18.5-4.8-25.8-10.7c-2.6-2.1-4.9-4.6-6.1-7.7
				c-1.5-4-1.2-8.9,0.9-12.5c1.6-2.7,4.2-4.7,7-6.2c3.5-2,7.2-3.3,11-4.3c7.4-2.1,14.9-3.3,22.5-4.7c3.1-0.6,6.2-1.1,9.3-1.7
				c0.7-0.1,1.1-0.7,1.1-1.4c-0.1-0.7-0.6-1.2-1.3-1.2c-5.6,0-11.2,0-16.8,0c0-31.4,0-62.7,0-103.9c-4.5,3.5-9,6.9-13.5,10.4
				c-13.9,0-27.8,0-41.8,0c49.3-38.1,98.6-76.2,148-114.3c15.2,11.8,30.5,23.5,45.7,35.3c0-12.3,0-24.7,0-37c10.5,0,21.1,0,31.7,0
				c0,20.5,0,41,0,61.4c23.5,18.2,47.1,36.4,70.6,54.5c-13.9,0-27.8,0-41.8,0c-4.5-3.5-9-6.9-13.5-10.4c0,42.4,0,73.2,0,103.9
				c-33.3,0-66.7,0-100.1,0C921.3,288.6,920.6,288.9,920.1,289.4z M917,288.6v-94.4l-47.9-0.1v94.4H917z M999.3,255.5V228H973v27.5
				H999.3z M999.3,221.7v-27.5H973v27.5H999.3z M966.7,255.5V228h-26.2v27.5H966.7z M966.7,221.7v-27.5h-26.2v27.5H966.7z"/>
		</g>
		<g>
		</g>
	</g>
</g>
<g id="LWPOLYLINE_38_">
	<g id="XMLID_1_">
		<g>
			<polygon class="st2" points="611.7,927.6 501.2,927.6 399.2,825.6 297.2,927.6 186.6,927.6 259.9,854.9 336.2,854.9 399.2,791.4 
				462.1,854.9 488.7,854.9 488.7,823.7 482.2,823.7 482.2,808.5 520.3,808.5 520.3,823.7 513.9,823.7 513.9,854.9 538.5,854.9 			
				"/>
			<path class="st2" d="M489.6,1004.4h-39.5v3.1h39.5V1004.4z M487.3,1002.8v-38.8c-1.4-9.6-10.4-16.3-20-14.9
				c-7.7,1.1-13.8,7.2-14.9,14.9v38.8H487.3z M550.2,1004.4h-34.9H513v3.1h39.5v-3.1H550.2z M550.2,1002.8v-38.8
				c-1.4-9.6-10.3-16.3-20-14.9c-7.7,1.1-13.8,7.2-14.9,14.9v38.8H550.2z M283,1004.4h-34.9h-2.3v3.1h39.5v-3.1H283z M283,1002.8
				v-38.8c-1.4-9.6-10.4-16.3-20-14.9c-7.7,1.1-13.8,7.2-14.9,14.9v38.8H283z M348.2,1004.4h-39.5v3.1h39.5V1004.4z M345.9,1002.8
				v-38.8c-1.4-9.6-10.4-16.3-20-14.9c-7.7,1.1-13.8,7.2-14.9,14.9v38.8H345.9z M718,1024.7v16.4H585.3H428.8h-59.2H213H80.3v-16.4
				H117v-25.2H80.8l9.5-42.3h-10L95,905.6h-8.4l39.7-114.1L166,905.6h-8.4l14.7,51.7h-10l9.5,42.3h-36.2v25.2H213v-88.8h87.6
				l98.6-98.5l98.6,98.5h87.6v88.8h77.3v-25.2h-36.2l9.5-42.3h-10l14.8-51.7h-8.4L672,791.4l39.7,114.1h-8.4l14.7,51.7h-10l9.5,42.3
				h-36.2v25.2H718z M428.8,1037v-52.9c0-16.3-13.3-29.6-29.6-29.6c-16.4,0-29.6,13.3-29.6,29.6v52.9H428.8z M400.7,893.6h16.9
				c-0.8-9-7.9-16.1-16.9-16.9V893.6z M417.6,896.7h-16.9v16.9C409.7,912.8,416.9,905.7,417.6,896.7z M397.6,913.6v-16.9h-16.9
				C381.5,905.7,388.6,912.8,397.6,913.6z M397.6,893.6v-16.9c-9,0.8-16.1,7.9-16.9,16.9H397.6z"/>
		</g>
		<g>
		</g>
	</g>
</g>
<g id="LWPOLYLINE_39_">
	<g id="XMLID_5_">
		<g>
			<path class="st2" d="M755.9,581.5h-53.2v117.2H501V581.5h-53.2L601.9,444l58.1,51.9V476h34.5v50.7L755.9,581.5z M660.9,607.7
				c5.1-8.5,8.4-18.3,7.2-28.5c-1-8.7-5.2-17.8-11.7-24.3c-6.5-6.5-15.3-10.3-24-10.8c-5.2-0.3-10.5,0.6-15.5,2.5
				c-4.4,1.7-8.7,4.3-12,7.5c-1.1,1.1-2.2,2.2-3.1,3.6c-0.9-1.4-2-2.5-3.1-3.6c-3.4-3.2-7.6-5.8-12-7.5c-5-2-10.2-2.8-15.5-2.5
				c-8.7,0.5-17.4,4.3-24,10.8c-6.5,6.5-10.8,15.6-11.7,24.3c-1.2,10.2,2.1,19.9,7.2,28.5c6.3,10.6,15.4,19.4,24.8,27.8
				c11.2,10,22.8,19.4,34.3,29c11.4-9.7,23-19,34.3-29C645.5,627.1,654.6,618.3,660.9,607.7z"/>
			<path class="st2" d="M710.5,422.1c0.5,4.6-1,9-3.3,12.9c-2.9,4.8-7,8.8-11.3,12.6c-5.1,4.5-10.4,8.8-15.6,13.2
				c-5.2-4.4-10.5-8.6-15.5-13.2c-4.3-3.8-8.4-7.8-11.3-12.6c-2.3-3.9-3.8-8.3-3.3-12.9c0.5-4,2.4-8.1,5.3-11
				c3-2.9,6.9-4.7,10.9-4.9c2.4-0.1,4.7,0.3,7,1.2c2,0.8,4,1.9,5.5,3.4c0.5,0.5,1,1,1.4,1.6c0.4-0.6,0.9-1.1,1.4-1.6
				c1.5-1.5,3.5-2.6,5.5-3.4c2.3-0.9,4.7-1.3,7-1.2c3.9,0.2,7.9,2,10.9,4.9C708.1,414,710,418.1,710.5,422.1z"/>
		</g>
		<g>
		</g>
	</g>
</g>
<g id="LWPOLYLINE_41_">
	<g id="XMLID_4_">
		<g>
			<path class="st2" d="M366,247.3c0.3,3-0.3,6.1-0.9,9.2c-1.1,5.7-2.3,11.2-3.6,16.7c-1.5,6.3-3.2,12.5-4.3,18.9
				c-0.6,3.4-1,6.9-2.2,10.2c-0.8,2.3-2.1,4.5-3.6,6.4c-1.8,2.1-4.1,3.8-6.4,5.4c-3.6,2.4-7.5,4.5-11.5,6.2
				c-8.7,3.8-18.1,6.1-27.6,7.4c-6.1,0.8-12.3,1.3-18.3,2.7c-2.5,0.6-4.9,1.3-7.1,2.5c-2.9,1.6-5.3,3.9-7.5,6.5
				c-2.4,2.9-4.3,6-6.3,9.1c-17.4,0-34.9,0-52.3,0c-0.5-1.7-0.9-3.3-1.3-5c-0.5-2.4-0.8-4.9-1-7.4c-0.2-2.5-0.3-4.9-0.3-7.3
				c-0.1,2.4-0.1,4.9-0.3,7.3c-0.2,2.5-0.5,5-1,7.4c-0.4,1.7-0.8,3.3-1.3,5c-17.4,0-34.9,0-52.3,0c-2-3.1-3.9-6.2-6.3-9.1
				c-2.1-2.6-4.6-4.9-7.5-6.5c-2.2-1.2-4.6-1.9-7.1-2.5c-6.1-1.4-12.2-1.9-18.3-2.7c-9.4-1.3-18.8-3.6-27.6-7.4
				c-4-1.7-7.8-3.8-11.5-6.2c-2.4-1.6-4.6-3.3-6.4-5.4c-1.6-1.9-2.8-4-3.6-6.4c-1.2-3.3-1.6-6.8-2.2-10.2
				c-1.1-6.4-2.8-12.6-4.3-18.9c-1.3-5.5-2.5-11-3.6-16.7c-0.6-3.1-1.2-6.2-0.9-9.2c0.3-3.2,1.6-6.3,2.6-9.4c0.7-2.5,1.2-5,2-7.5
				c0.3-1,0.7-2,0.6-3c-0.1-0.8-0.4-1.5-0.7-2.3c-1.7-4.8-0.4-10.1,1.2-15c0.9-2.6,1.8-5,3-7.4c0.9-1.7,2-3.4,2.8-5.1
				c0.9-1.9,1.6-3.8,2.6-5.6c0.7-1.3,1.5-2.4,2.7-3.2c1.4-0.9,3.3-1.2,5-0.9c1.8,0.3,3.4,1.1,4.8,2.3c1.1,1,2,2.2,2.6,3.5
				c0.6,1.5,0.9,3.2,0.8,4.9c-0.1,1.2-0.3,2.3-0.5,3.5c-0.3,2-0.3,4-0.5,6c-0.3,2.4-0.8,4.8-1.5,7.1c-0.5,1.7-1.1,3.4-1.7,5
				c-0.2,0.6-0.1,1.1,0.2,1.6c0.1,0.2,0.2,0.3,0.3,0.5c1.3,2.2,1.5,4.9,1.7,7.4c0.2,2.3,0.4,4.4,0.3,7.1c0,1.4-0.1,3.1,0.2,4.3
				c0.2,0.7,0.5,1.3,0.8,1.9c0.6,1.4,0.9,3,1.1,4.6c0.5,3.4,0.3,6.5,0.6,9.8c-0.8-0.1-1.6-0.1-2.4-0.1c-1.5,0.1-2.9,0.5-4.3,1.1
				c-1.8,0.8-3.5,1.8-4.9,3.2c-1.5,1.6-2.7,3.7-3.1,5.9c-0.3,1.6-0.2,3.2,0.4,4.7c0.4,1,1.1,1.9,1.8,2.8c1.4,1.7,3.1,3.1,4.7,4.5
				c2.5,2.2,4.9,4.4,7.3,6.6c3.4,3,6.9,5.9,10.4,8.7c2.5,2,5,3.9,7.5,5.8c0.2-0.3,0.3-0.5,0.5-0.8c0.3-0.8,0.1-1.8-0.3-2.6
				c-0.4-0.7-1-1.2-1.6-1.7c-1.1-1-2.1-2-3-3.1c-1.7-1.8-3.4-3.5-5.2-5.2c-1.7-1.6-3.4-3.3-5.1-4.9c1.1-1.2,2.3-2.3,3.4-3.5
				c1.1-1.1,2.1-2.2,3.2-3.4c0.6-0.7,1.3-1.4,1.9-2.1c-0.6-0.7-1.2-1.4-1.9-2c-0.9-0.8-1.9-1.6-2.8-2.4c-1.4-1.3-2.6-2.8-4.1-3.7
				c-0.8-0.5-1.7-0.8-2.6-0.9c-2-0.4-4-0.2-5.9,0.2c-1.3,0.3-2.6,0.7-3.9,1.2c0.1-0.4,0.2-0.9,0.3-1.2c0.3-0.8,1-1.4,1.7-1.9
				c1.1-0.8,2.4-1.3,3.8-1.7c1.5-0.4,3.1-0.7,4.6-0.9c1-0.1,2.1-0.2,3.2-0.2c3-0.1,6,0.2,8.8,1.1c2.2,0.7,4.2,1.8,6.2,3
				c4.1,2.6,7.7,5.7,11.6,8.6c4.2,3.2,8.7,6,13.6,8c5.4,2.3,11.3,3.8,17.1,4.5c5.2,0.6,10.4,0.7,15.6,0.8c5.7,0.1,11.4,0.3,16.9,1.6
				c3,0.7,5.9,1.7,8.7,3c2.2,1,4.4,2.3,6.4,3.7c3.6,2.6,6.8,6.1,9.4,9.9c1.3,2,2.5,4,3.4,6c0.8,1.8,1.4,3.6,1.9,5.6
				c0.5-2.1,1.1-3.9,1.9-5.6c0.9-2,2.1-4.1,3.4-6c2.6-3.8,5.7-7.3,9.4-9.9c2-1.5,4.1-2.7,6.4-3.7c2.8-1.3,5.7-2.3,8.7-3
				c5.5-1.3,11.2-1.4,16.9-1.6c5.2-0.1,10.4-0.2,15.6-0.8c5.9-0.7,11.7-2.2,17.1-4.5c4.8-2.1,9.4-4.9,13.6-8c3.9-2.9,7.5-6,11.6-8.6
				c1.9-1.2,4-2.3,6.2-3c2.8-0.9,5.8-1.2,8.8-1.1c1,0,2.1,0.1,3.1,0.2c1.6,0.2,3.1,0.4,4.6,0.9c1.3,0.4,2.6,0.9,3.8,1.7
				c0.7,0.5,1.3,1.2,1.7,1.9c0.2,0.4,0.2,0.8,0.3,1.2c-1.3-0.4-2.6-0.9-3.9-1.2c-1.9-0.4-4-0.6-5.9-0.2c-0.9,0.2-1.8,0.5-2.6,0.9
				c-1.6,0.9-2.8,2.4-4.1,3.7c-0.9,0.9-1.9,1.6-2.8,2.4c-0.7,0.6-1.3,1.3-1.9,2c0.6,0.7,1.3,1.4,1.9,2.1c1,1.2,2.1,2.3,3.2,3.4
				c1.1,1.2,2.3,2.3,3.4,3.5c-1.7,1.6-3.4,3.3-5.1,4.9c-1.8,1.7-3.5,3.4-5.2,5.2c-1,1-2,2.1-3,3.1c-0.6,0.5-1.2,1-1.6,1.7
				c-0.4,0.8-0.6,1.8-0.3,2.6c0.1,0.3,0.3,0.5,0.5,0.8c2.5-1.9,5.1-3.8,7.6-5.8c3.5-2.8,7-5.7,10.4-8.7c2.5-2.2,4.9-4.4,7.4-6.6
				c1.6-1.4,3.3-2.8,4.7-4.5c0.7-0.9,1.4-1.8,1.8-2.8c0.6-1.4,0.6-3.1,0.4-4.7c-0.4-2.2-1.5-4.3-3.1-5.9c-1.4-1.4-3.1-2.5-4.9-3.2
				c-1.4-0.6-2.8-1-4.3-1.1c-0.8,0-1.6,0-2.4,0.1c0.3-3.3,0.1-6.3,0.6-9.8c0.2-1.6,0.6-3.2,1.1-4.6c0.3-0.6,0.6-1.2,0.8-1.9
				c0.3-1.3,0.2-2.9,0.2-4.3c-0.1-2.7,0.2-4.8,0.3-7.1c0.2-2.5,0.4-5.2,1.7-7.4c0.1-0.2,0.2-0.3,0.3-0.5c0.3-0.5,0.4-1,0.2-1.6
				c-0.6-1.7-1.2-3.3-1.7-5c-0.7-2.3-1.3-4.7-1.5-7.1c-0.2-2-0.3-4-0.5-6c-0.2-1.2-0.4-2.3-0.5-3.5c-0.1-1.6,0.1-3.4,0.8-4.9
				c0.6-1.4,1.5-2.6,2.6-3.5c1.3-1.2,2.9-2,4.8-2.3c1.7-0.2,3.6,0,5,0.9c1.2,0.8,2,1.9,2.7,3.2c1,1.8,1.7,3.8,2.6,5.6
				c0.9,1.8,1.9,3.4,2.8,5.1c1.2,2.3,2.2,4.8,3,7.4c1.6,4.9,2.9,10.2,1.3,15c-0.3,0.8-0.6,1.5-0.7,2.3c-0.1,1,0.3,2,0.6,3
				c0.8,2.5,1.3,5,2,7.5C364.3,241,365.7,244.1,366,247.3z"/>
			<path class="st2" d="M336.4,220.3c-0.5,1.7-1.1,3.5-1.6,5.2c-0.5,1.6-1,3.2-1.5,4.8c-0.7-1.4-1.3-2.8-2-4.1
				c-1.4-3.1-2.8-6.2-3.9-9.3c-0.9-2.6-1.8-5.2-2.3-7.8c-0.2-1.1-0.4-2.3-0.6-3.5c0-0.3-0.2-0.7-0.4-0.9c-0.9-1-1.9-2-2.8-3.1
				c-1.1-1.4-2.2-2.8-3.3-4.2c-1.5-2.2-2.8-4.5-3.8-6.9c-0.8-2-1.4-4-1.6-6.2c-0.2-2.1-0.1-4.2,0.9-6.2c0.4-0.8,0.9-1.5,1.6-1.9
				c0.8-0.4,1.7-0.5,2.6-0.4c1.1,0.2,2,0.7,2.9,1.3c1.9,1.1,3.6,2.4,5.3,3.7c1.8,1.5,3.5,3.3,5.1,5c1.4,1.6,2.8,3.2,4.2,4.9
				c-0.7,0.6-1.5,1.3-2.1,2c-0.8,0.9-1.4,1.9-1.8,2.9c-0.4,1.1-0.4,2.3-0.4,3.5c0.1,2,0.5,3.9,0.9,5.8c0.7,3.1,1.5,6.2,2.5,9.3
				C335,216.2,335.7,218.2,336.4,220.3z"/>
			<path class="st2" d="M330.1,140.7c2.8,2.4,3.1,6.7,0.7,9.6l-6.7,7.7c-2.4,2.8-6.7,3.1-9.6,0.7L211.9,69.8l-102.6,88.8
				c-2.8,2.5-7.1,2.1-9.6-0.7l-6.7-7.7c-2.5-2.8-2.1-7.1,0.7-9.6l115-99.6c1.8-1.5,4.4-1.5,6.2,0l52.4,45.3c0.6,0.5,1.4,0.4,1.9-0.1
				c0.2-0.3,0.3-0.6,0.3-0.9V61.1c0-2.6,2.1-4.7,4.7-4.7h20.1c2.6,0,4.8,2.1,4.8,4.7v51.3c0,1,0.4,1.9,1.2,2.6L330.1,140.7z"/>
			<path class="st2" d="M303.6,163.4v84.4c0,5.6-4.6,10.2-10.2,10.2h-56.9v-64.9c0-2.6-2.1-4.8-4.7-4.8H192c-2.6,0-4.7,2.1-4.7,4.8
				V258h-56.9c-5.6,0-10.2-4.6-10.2-10.2v-84.4l91.7-79.4L303.6,163.4z"/>
			<path class="st2" d="M110.4,178c1,1.9,1.1,4.1,0.9,6.2c-0.2,2.1-0.8,4.2-1.6,6.2c-1,2.4-2.3,4.8-3.8,6.9c-1,1.5-2.1,2.9-3.3,4.2
				c-0.9,1.1-1.8,2.1-2.8,3.1c-0.2,0.3-0.4,0.6-0.5,0.9c-0.2,1.2-0.3,2.3-0.6,3.5c-0.6,2.7-1.4,5.3-2.3,7.8
				c-1.2,3.2-2.5,6.3-3.9,9.3c-0.7,1.4-1.3,2.8-2,4.1c-0.5-1.6-1-3.2-1.5-4.8c-0.5-1.7-1.1-3.5-1.6-5.2c0.7-2.1,1.4-4.1,2-6.2
				c0.9-3.1,1.8-6.1,2.5-9.3c0.4-1.9,0.8-3.8,0.9-5.8c0-1.2,0-2.4-0.4-3.5c-0.4-1.1-1-2.1-1.8-2.9c-0.6-0.7-1.4-1.4-2.1-2
				c1.4-1.6,2.8-3.3,4.2-4.9c1.6-1.8,3.3-3.5,5.2-5c1.7-1.4,3.4-2.6,5.3-3.7c0.9-0.6,1.9-1.1,2.9-1.3c0.9-0.1,1.8,0,2.6,0.4
				C109.5,176.5,110.1,177.2,110.4,178z"/>
		</g>
		<g>
		</g>
	</g>
</g>
<g id="LWPOLYLINE_56_">
	<g id="XMLID_6_">
		<g>
			<path class="st2" d="M759.9,180.5c0,1.4-1.1,2.5-2.5,2.5h-38c-0.6,0-1.1-0.2-1.6-0.6L598.1,84.3c-2.9-2.4-7-2.4-9.9,0
				l-119.7,98.2c-0.5,0.4-1,0.6-1.6,0.6h-38c-0.8,0-1.5-0.3-2-0.9c-0.9-1.1-0.7-2.6,0.4-3.5l160.9-132c2.9-2.4,7-2.4,9.9,0L653.4,92
				V63.1h-4.7v-8.9c0-1.3,1-2.3,2.3-2.3h44.2c1.3,0,2.3,1,2.3,2.3v8.9h-4.8v61l66.4,54.5C759.5,179.1,759.9,179.8,759.9,180.5z"/>
			<path class="st2" d="M694.6,179.4v125.2h-203V179.4l96.5-79.2c2.9-2.4,7-2.4,9.9,0L694.6,179.4z M667.6,300.2v-64.9
				c-0.6-15.5-13.6-27.6-29.1-27.1c-14.7,0.5-26.5,12.4-27.1,27.1v64.9H667.6z M594.7,139.5h16.7c-0.8-8.9-7.8-16-16.7-16.7V139.5z
				 M611.4,142.6h-16.7v16.7C603.6,158.6,610.7,151.5,611.4,142.6z M591.6,159.3v-16.7h-16.7C575.6,151.5,582.7,158.6,591.6,159.3z
				 M591.6,139.5v-16.7c-8.9,0.8-16,7.8-16.7,16.7H591.6z M585.3,258.4v-21.3c0-1.1-0.9-1.9-2-1.9H562c-1.1,0-2,0.9-2,1.9v21.3
				c0,1.1,0.9,2,2,2h21.3C584.4,260.3,585.3,259.5,585.3,258.4z M585.3,226.9v-21.3c0-1.1-0.9-2-2-2H562c-1.1,0-2,0.9-2,2v21.3
				c0,1.1,0.9,1.9,2,1.9h21.3C584.4,228.8,585.3,227.9,585.3,226.9z M553.8,258.4v-21.3c0-1.1-0.9-1.9-2-1.9h-21.3
				c-1.1,0-2,0.9-2,1.9v21.3c0,1.1,0.9,2,2,2h21.3C552.9,260.3,553.8,259.5,553.8,258.4z M553.8,226.9v-21.3c0-1.1-0.9-2-2-2h-21.3
				c-1.1,0-2,0.9-2,2v21.3c0,1.1,0.9,1.9,2,1.9h21.3C552.9,228.8,553.8,227.9,553.8,226.9z"/>
		</g>
		<g>
		</g>
	</g>
</g>
<g id="LWPOLYLINE_57_">
	<g id="XMLID_3_">
		<g>
			<rect x="120.2" y="438.8" class="st2" width="40.3" height="6.5"/>
			<polygon class="st2" points="399.2,559.7 390.8,570.5 230.9,447 71,570.5 62.6,559.7 123.9,512.4 123.9,448.4 156.7,448.4 
				156.7,487 230.9,429.7 			"/>
			<path class="st2" d="M145,621.3v-21.1h-25.3v21.1H145z M145,645.3v-21.1h-25.3v21.1H145z M147.9,624.2v21.1h25.3v-21.1H147.9z
				 M173.1,621.3v-21.1h-25.3v21.1H173.1z M229.5,534.5v-21.1h-27.2v21.1H229.5z M229.5,558.5v-21.1h-27.2v21.1H229.5z M232.3,537.4
				v21.1h27.2v-21.1H232.3z M259.5,534.5v-21.1h-27.2v21.1H259.5z M313.9,621.3v-21.1h-25.3v21.1H313.9z M313.9,645.3v-21.1h-25.3
				v21.1H313.9z M342.1,624.2h-25.3v21.1h25.3V624.2z M342.1,621.3v-21.1h-25.3v21.1H342.1z M363.3,561.5v141.1h-99.8v-10.9h-3.1
				v10.9h-58.9v-93.9h58.9v10.9h3.1v-14h-65.1v97H98.6V561.5l132.4-102.2L363.3,561.5z M263.5,682.6v-23.9h-3.1v23.9H263.5z
				 M263.5,649.5v-20.8h-3.1v20.8H263.5z M222.6,660v-0.3c0-0.6-0.5-1.1-1.1-1.1h-8.6v-5.3c0-0.7-0.6-1.3-1.3-1.3h-2.2
				c-0.7,0-1.3,0.6-1.3,1.3v15.9c0,0.7,0.6,1.3,1.3,1.3h2.2c0.7,0,1.3-0.6,1.3-1.3v-8h8.6C222.1,661.1,222.6,660.6,222.6,660z"/>
		</g>
		<g>
		</g>
	</g>
</g>
<g id="LWPOLYLINE_58_">
	<g id="XMLID_8_">
		<g>
			<path class="st2" d="M984.9,907v18.6c0,0.9-0.8,1.7-1.7,1.7h-18.6c-0.9,0-1.7-0.8-1.7-1.7V907c0-0.9,0.8-1.7,1.7-1.7h18.6
				C984.1,905.3,984.9,906,984.9,907z"/>
			<path class="st2" d="M957.4,907v18.6c0,0.9-0.8,1.7-1.7,1.7h-18.6c-0.9,0-1.7-0.8-1.7-1.7V907c0-0.9,0.8-1.7,1.7-1.7h18.6
				C956.7,905.3,957.4,906,957.4,907z"/>
			<path class="st2" d="M957.4,934.4V953c0,0.9-0.8,1.7-1.7,1.7h-18.6c-0.9,0-1.7-0.8-1.7-1.7v-18.5c0-0.9,0.8-1.7,1.7-1.7h18.6
				C956.7,932.7,957.4,933.5,957.4,934.4z"/>
			<path class="st2" d="M984.9,934.4V953c0,0.9-0.8,1.7-1.7,1.7h-18.6c-0.9,0-1.7-0.8-1.7-1.7v-18.5c0-0.9,0.8-1.7,1.7-1.7h18.6
				C984.1,932.7,984.9,933.5,984.9,934.4z"/>
			<path class="st2" d="M1119.6,1051c-102.8-38.4-216-38.4-318.9,0C899.6,994.8,1020.7,994.8,1119.6,1051z"/>
			<polygon class="st2" points="1100.8,915.1 1046.9,915.1 1046.9,1010 1034.5,1010 1034.5,885.1 960.2,825.2 885.8,885.1 
				885.8,1010 873.4,1010 873.4,915.1 819.6,915.1 873.5,871.6 873.5,813.8 904.2,813.8 904.2,846.8 960.2,801.7 			"/>
		</g>
		<g>
		</g>
	</g>
</g>
</svg>
